<?xml version="1.0" standalone="no"?>
<!DOCTYPE svg PUBLIC "-//W3C//DTD SVG 20010904//EN"
 "http://www.w3.org/TR/2001/REC-SVG-20010904/DTD/svg10.dtd">
<svg version="1.0" xmlns="http://www.w3.org/2000/svg"
 width="512.000000pt" height="512.000000pt" viewBox="0 0 512.000000 512.000000"
 preserveAspectRatio="xMidYMid meet">
<metadata>
Created by potrace 1.11, written by Peter Selinger 2001-2013
</metadata>
<g transform="translate(0.000000,512.000000) scale(0.100000,-0.100000)"
fill="#000000" stroke="none">
<path d="M2330 5020 c-8 -5 -33 -10 -55 -10 -22 0 -76 -8 -120 -16 -44 -8 -98
-18 -120 -21 -22 -3 -48 -9 -57 -14 -9 -5 -26 -9 -37 -9 -12 0 -29 -4 -39 -9
-9 -5 -48 -18 -87 -30 -38 -12 -79 -26 -90 -31 -11 -4 -47 -18 -80 -31 -103
-38 -346 -165 -450 -235 -138 -92 -221 -160 -354 -289 -244 -237 -419 -490
-547 -792 -8 -18 -20 -48 -28 -65 -7 -18 -19 -49 -26 -68 -7 -19 -16 -44 -20
-55 -18 -44 -50 -155 -50 -175 0 -12 -4 -29 -9 -38 -5 -9 -11 -33 -15 -52 -3
-19 -10 -55 -16 -80 -6 -25 -13 -79 -16 -120 -3 -41 -10 -83 -15 -92 -12 -22
-12 -430 0 -460 5 -13 14 -70 21 -128 6 -58 15 -109 19 -115 4 -5 8 -25 9 -44
2 -18 7 -41 12 -51 6 -10 10 -32 10 -47 0 -16 4 -33 8 -38 5 -6 14 -35 22 -65
7 -30 18 -64 23 -75 24 -47 27 -55 27 -68 0 -8 6 -27 14 -43 8 -16 21 -47 31
-69 9 -22 21 -47 26 -55 5 -8 12 -22 15 -30 26 -70 96 -195 177 -315 201 -299
439 -525 782 -742 45 -29 295 -151 350 -172 33 -12 68 -27 77 -32 10 -5 25 -9
33 -9 8 0 23 -4 33 -10 15 -8 57 -22 162 -52 19 -5 58 -13 85 -18 28 -5 68
-13 90 -18 185 -48 687 -48 869 -1 23 6 64 14 91 19 28 5 68 13 90 20 22 6 54
15 70 19 53 15 130 41 147 51 10 6 22 10 28 10 21 0 318 142 405 193 435 259
810 688 995 1137 29 69 56 134 61 145 4 11 18 52 29 90 12 39 25 78 31 87 5
10 9 33 9 51 0 18 4 37 10 43 5 5 10 25 11 44 2 19 6 40 10 45 4 6 12 53 18
105 7 52 16 118 22 145 21 103 0 529 -32 660 -6 22 -13 58 -15 79 -3 22 -10
48 -15 57 -5 10 -9 29 -9 43 0 15 -4 34 -9 44 -6 9 -19 49 -31 87 -11 39 -25
79 -29 90 -5 11 -30 72 -56 135 -109 266 -275 517 -489 737 -137 142 -263 248
-408 345 -107 71 -349 198 -453 237 -33 13 -69 27 -80 32 -11 4 -51 18 -90 29
-38 12 -79 25 -90 30 -22 10 -57 17 -130 30 -27 5 -70 13 -95 19 -97 24 -214
34 -425 37 -135 3 -226 0 -235 -6z m561 -335 c792 -123 1441 -666 1704 -1425
154 -446 154 -953 0 -1400 -108 -315 -275 -581 -514 -821 -289 -288 -617 -472
-1012 -567 -185 -45 -284 -56 -494 -56 -210 0 -309 11 -493 55 -322 78 -615
223 -864 427 -97 79 -270 259 -340 352 -292 389 -438 827 -438 1310 0 416 110
804 325 1145 224 355 559 648 934 815 222 99 419 150 721 184 70 8 377 -4 471
-19z"/>
<path d="M2385 4484 c-295 -40 -433 -82 -670 -199 -496 -247 -856 -691 -999
-1230 -45 -167 -60 -296 -60 -495 0 -131 5 -217 18 -295 133 -815 722 -1431
1531 -1601 120 -25 149 -28 360 -28 178 0 251 4 323 17 625 118 1114 476 1391
1017 154 301 212 547 212 890 0 343 -58 589 -212 890 -269 524 -749 886 -1339
1006 -104 22 -158 27 -325 29 -110 2 -213 1 -230 -1z m875 -619 c40 -21 69
-62 129 -183 58 -118 87 -162 166 -252 127 -144 146 -227 72 -307 -16 -18 -31
-23 -72 -23 -47 0 -57 4 -99 42 -26 22 -68 72 -93 109 -79 121 -173 189 -338
243 -227 76 -499 70 -716 -16 -275 -109 -461 -347 -515 -661 -23 -131 -15
-420 14 -529 46 -170 101 -272 209 -388 181 -193 386 -280 663 -280 252 0 402
44 516 152 52 49 91 105 172 244 48 83 88 120 137 130 96 18 160 -36 160 -135
0 -74 -26 -122 -127 -242 -148 -175 -187 -244 -208 -369 -14 -86 -28 -113 -73
-140 -43 -27 -92 -25 -142 4 -38 23 -57 51 -79 120 -5 15 -12 17 -39 12 -155
-32 -419 -30 -589 5 -441 89 -778 395 -884 804 -59 227 -59 536 2 756 92 335
342 605 679 732 215 82 527 106 765 61 127 -24 125 -24 125 12 1 41 29 82 68
99 42 18 62 18 97 0z"/>
</g>
</svg>
